<svg xmlns="http://www.w3.org/2000/svg" viewBox="0 0 28 28" width="28" height="28" role="img" aria-label="Stock Watcher">
  <rect width="28" height="28" rx="8" fill="#0069a8" fill-opacity="0.1"/>
  <rect x="0.5" y="0.5" width="27" height="27" rx="7.5" fill="none" stroke="#0069a8" stroke-opacity="0.15"/>
  <g transform="translate(6 6) scale(0.6666667)" fill="none" stroke="#0069a8" stroke-width="2" stroke-linecap="round" stroke-linejoin="round">
    <path d="M19.07 4.93A10 10 0 0 0 6.99 3.34"/>
    <path d="M4 6h.01"/>
    <path d="M2.29 9.62A10 10 0 1 0 21.31 8.35"/>
    <path d="M16.24 7.76A6 6 0 1 0 8.23 16.67"/>
    <path d="M12 18h.01"/>
    <path d="M17.99 11.66A6 6 0 0 1 15.77 16.67"/>
    <circle cx="12" cy="12" r="2"/>
    <path d="m13.41 10.59 5.66-5.66"/>
  </g>
</svg>
